<?xml version="1.0" encoding="UTF-8" standalone="no"?>
<svg
   xmlns:dc="http://purl.org/dc/elements/1.1/"
   xmlns:cc="http://creativecommons.org/ns#"
   xmlns:rdf="http://www.w3.org/1999/02/22-rdf-syntax-ns#"
   xmlns:svg="http://www.w3.org/2000/svg"
   xmlns="http://www.w3.org/2000/svg"
   xmlns:xlink="http://www.w3.org/1999/xlink"
   xmlns:sodipodi="http://sodipodi.sourceforge.net/DTD/sodipodi-0.dtd"
   xmlns:inkscape="http://www.inkscape.org/namespaces/inkscape"
   viewBox="303.2508 328.3307 361.5422 103.9101"
   width="4866"
   height="1398.5269"
   preserveAspectRatio="none"
   version="1.1"
   id="svg72"
   sodipodi:docname="Original_neu.svg"
   inkscape:version="0.92.5 (2060ec1f9f, 2020-04-08)"
   inkscape:export-filename="/home/valle/Dokumente/projects/tokoluna/assets/logo/Resizable Vector Files/Original_neu.png"
   inkscape:export-xdpi="96"
   inkscape:export-ydpi="96">
  <metadata
     id="metadata76">
    <rdf:RDF>
      <cc:Work
         rdf:about="">
        <dc:format>image/svg+xml</dc:format>
        <dc:type
           rdf:resource="http://purl.org/dc/dcmitype/StillImage" />
        <dc:title></dc:title>
      </cc:Work>
    </rdf:RDF>
  </metadata>
  <sodipodi:namedview
     pagecolor="#ffffff"
     bordercolor="#666666"
     borderopacity="1"
     objecttolerance="10"
     gridtolerance="10"
     guidetolerance="10"
     inkscape:pageopacity="0"
     inkscape:pageshadow="2"
     inkscape:window-width="1916"
     inkscape:window-height="1041"
     id="namedview74"
     showgrid="false"
     inkscape:zoom="0.13867436"
     inkscape:cx="2601.6658"
     inkscape:cy="146.86375"
     inkscape:window-x="1680"
     inkscape:window-y="18"
     inkscape:window-maximized="0"
     inkscape:current-layer="g23"
     inkscape:pagecheckerboard="true" />
  <defs
     id="defs2">
    <linearGradient
       inkscape:collect="always"
       id="linearGradient890">
      <stop
         style="stop-color:#00678f;stop-opacity:1;"
         offset="0"
         id="stop886" />
      <stop
         style="stop-color:#00678f;stop-opacity:0;"
         offset="1"
         id="stop888" />
    </linearGradient>
    <linearGradient
       inkscape:collect="always"
       xlink:href="#linearGradient890"
       id="linearGradient892"
       x1="1.8"
       y1="-12.72"
       x2="631.20001"
       y2="-12.72"
       gradientUnits="userSpaceOnUse" />
  </defs>
  <style
     id="style4">.a6izo4zJpcolor {fill:#E5C58F;fill-opacity:1;}.a6izo4zJpstrokeColor-str {stroke:#94286F;stroke-opacity:1;}.aD6z1nYkhcolor {fill:#E5C58F;fill-opacity:1;}.aD6z1nYkhstrokeColor-str {stroke:#94286F;stroke-opacity:1;}.ashadowchQvRzEHHa2A-floo {flood-color:#E5C58F;flood-opacity:0.5;}.ashadowLDCybzBGAhO2-floo {flood-color:#E55C3E;flood-opacity:0.5;}.ashadowO8-ptFzymQ-S-floo {flood-color:#141E20;flood-opacity:0.5;}.icon1 {fill:#E55C3E;fill-opacity:1;}.icon2 {fill:#E5C58F;fill-opacity:1;}.icon3 {fill:#94286F;fill-opacity:1;}.icon4 {fill:#670846;fill-opacity:1;}.icon5 {fill:#490E02;fill-opacity:1;}.icon6 {fill:#9A620D;fill-opacity:1;}.icon7 {fill:#267B8C;fill-opacity:1;}.icon8 {fill:#1A5A67;fill-opacity:1;}</style>
  <defs
     id="defs11">
    <filter
       x="-1000"
       y="-1000"
       width="5000"
       height="5000"
       id="cGGZ5hhZR"
       filterUnits="userSpaceOnUse"
       primitiveUnits="userSpaceOnUse"
       style="color-interpolation-filters:sRGB">
      <feMerge
         id="feMerge8">
        <feMergeNode
           in="SourceGraphic"
           id="feMergeNode6" />
      </feMerge>
    </filter>
  </defs>
  <g
     id="g27"
     style="opacity:1">
    <svg
       width="354.42841"
       height="14.3262"
       x="311.25079"
       y="417.91461"
       version="1.1"
       preserveAspectRatio="none"
       viewBox="1.8 -25.44 629.4 25.44"
       id="svg25">
      <g
         transform="matrix(1.0200375,0,0,1.0224797,-14.263657,0.02206423)"
         class="a6izo4zJpcolor"
         id="g23"
         style="fill:#e5c58f;fill-opacity:0.99259255;stroke:#00678f;stroke-opacity:0">
        <defs
           id="defs14"
           style="stroke:url(#linearGradient892)">
          <path
             id="id-6izo4zJp20"
             d="m 8.48,-9.52 h -1 V 0 H 1.8 v -25.44 h 10.48 q 5.04,0 5.04,4.4 v 0 7.12 q 0,3.52 -3.2,4.24 v 0 L 18.6,0 h -6.12 z m 2.08,-11.72 H 7.48 v 7.68 h 3.08 q 0.56,0 0.8,-0.22 0.24,-0.22 0.24,-0.74 v 0 -5.72 q 0,-1 -1.04,-1 z m 34.4,3.68 v -2.24 h 5.48 V 0 H 44.88 V -1.96 Q 44.28,0 41.72,0 v 0 h -0.96 q -4.68,0 -4.68,-4.44 v 0 -10.92 q 0,-4.44 4.68,-4.44 v 0 h 0.96 q 2.68,0 3.24,2.24 z m -2.2,13.36 v 0 h 0.92 q 1.2,0 1.2,-1.28 v 0 -8.84 q 0,-1.28 -1.2,-1.28 v 0 h -0.92 q -1.08,0 -1.08,1 v 0 9.4 q 0,1 1.08,1 z m 44.52,-15.6 v 0 h 0.96 q 4.68,0 4.68,4.44 v 0 V 0 h -5.56 v -14.6 q 0,-1 -1.08,-1 v 0 h -0.96 q -1.16,0 -1.16,1.28 v 0 V 0 h -5.6 v -14.6 q 0,-1 -1.08,-1 v 0 h -0.96 q -1.16,0 -1.16,1.28 v 0 V 0 H 69.8 v -19.8 h 5.48 v 2.24 q 0.56,-2.24 3.2,-2.24 v 0 h 1 q 3.28,0 4.28,2.24 v 0 q 0.28,-1.04 1.22,-1.64 0.94,-0.6 2.3,-0.6 z m 29.56,0 v 0 h 4.52 q 5.08,0 5.08,4.44 v 0 7 h -9.32 v 3.4 q 0,0.52 0.24,0.74 0.24,0.22 0.84,0.22 v 0 h 1.8 q 0.56,0 0.8,-0.24 0.24,-0.24 0.24,-0.8 v 0 -1.32 h 5.36 v 1.92 Q 126.4,0 121.32,0 v 0 h -4.48 q -5.04,0 -5.04,-4.44 v 0 -10.92 q 0,-4.44 5.04,-4.44 z m 0.28,4.96 v 3.2 h 3.96 v -3.2 q 0,-0.52 -0.24,-0.74 -0.24,-0.22 -0.8,-0.22 v 0 h -1.84 q -0.6,0 -0.84,0.22 -0.24,0.22 -0.24,0.74 z m 36.8,-4.96 v 0 h 1 q 4.68,0 4.68,4.44 v 0 V 0 H 154 v -14.6 q 0,-1 -1.08,-1 v 0 h -0.96 q -1.16,0 -1.16,1.28 v 0 V 0 h -5.56 v -19.8 h 5.48 v 2.24 q 0.56,-2.24 3.2,-2.24 z m 35.24,9.8 h -10.8 v -3.92 h 10.8 z m 25.72,0.48 h -1 V 0 h -5.68 v -25.44 h 10.48 q 5.04,0 5.04,4.4 v 0 7.12 q 0,3.52 -3.2,4.24 v 0 L 225,0 h -6.12 z m 2.08,-11.72 h -3.08 v 7.68 h 3.08 q 0.56,0 0.8,-0.22 Q 218,-14 218,-14.52 v 0 -5.72 q 0,-1 -1.04,-1 z m 30.64,1.44 v 0 h 4.52 q 5.08,0 5.08,4.44 v 0 7 h -9.32 v 3.4 q 0,0.52 0.24,0.74 0.24,0.22 0.84,0.22 v 0 h 1.8 q 0.56,0 0.8,-0.24 0.24,-0.24 0.24,-0.8 v 0 -1.32 h 5.36 v 1.92 q 0,4.44 -5.08,4.44 v 0 h -4.48 q -5.04,0 -5.04,-4.44 v 0 -10.92 q 0,-4.44 5.04,-4.44 z m 0.28,4.96 v 3.2 h 3.96 v -3.2 q 0,-0.52 -0.24,-0.74 -0.24,-0.22 -0.8,-0.22 v 0 h -1.84 q -0.6,0 -0.84,0.22 -0.24,0.22 -0.24,0.74 z m 35.92,10.08 v 0 V -7 q 0,-0.52 -0.24,-0.74 -0.24,-0.22 -0.84,-0.22 v 0 h -2.28 q -5,0 -5,-4.4 v 0 -3 q 0,-4.44 5.08,-4.44 v 0 h 3.4 q 5.08,0 5.08,4.44 v 0 1.76 h -5.36 v -1.44 q 0,-0.52 -0.24,-0.74 -0.24,-0.22 -0.84,-0.22 v 0 h -0.6 q -0.6,0 -0.84,0.22 -0.24,0.22 -0.24,0.74 v 0 2.4 q 0,0.52 0.24,0.74 0.24,0.22 0.84,0.22 v 0 h 2.28 q 5,0 5,4.36 v 0 2.88 q 0,4.44 -5.08,4.44 v 0 h -3.56 q -5.04,0 -5.04,-4.44 v 0 -1.72 H 281 v 1.4 q 0,1 1.04,1 v 0 h 0.68 q 1.08,0 1.08,-1 z m 33,-15.04 v 4.2 h -2.6 v 10.36 q 0,0.96 1.08,0.96 v 0 h 1.52 V 0 h -3.12 q -5.04,0 -5.04,-4.44 v 0 -11.16 h -2.08 v -4.2 h 2.08 v -3.68 h 5.56 v 3.68 z m 26.6,2.24 v -2.24 h 5.48 V 0 h -5.56 V -1.96 Q 342.72,0 340.16,0 v 0 h -0.96 q -4.68,0 -4.68,-4.44 v 0 -10.92 q 0,-4.44 4.68,-4.44 v 0 h 0.96 q 2.68,0 3.24,2.24 z m -2.2,13.36 v 0 h 0.92 q 1.2,0 1.2,-1.28 v 0 -8.84 q 0,-1.28 -1.2,-1.28 v 0 h -0.92 q -1.08,0 -1.08,1 v 0 9.4 q 0,1 1.08,1 z m 35.68,-1.28 V -19.8 h 5.56 V 0 h -5.48 V -2.24 Q 376.4,0 373.72,0 v 0 h -0.96 q -4.68,0 -4.68,-4.44 v 0 -15.36 h 5.6 v 14.6 q 0,1 1.08,1 v 0 h 0.92 q 1.2,0 1.2,-1.28 z m 34.28,-14.44 v 0 h 0.68 v 4.84 h -1.96 q -2.52,0 -2.52,2.8 v 0 V 0 h -5.56 v -19.8 h 5.48 v 2.84 q 0.32,-1.32 1.32,-2.14 1,-0.82 2.56,-0.82 z m 27.08,2.36 v -2.24 h 5.48 V 0 h -5.56 V -1.96 Q 437.56,0 435,0 v 0 h -0.96 q -4.68,0 -4.68,-4.44 v 0 -10.92 q 0,-4.44 4.68,-4.44 v 0 H 435 q 2.68,0 3.24,2.24 z m -2.2,13.36 v 0 h 0.92 q 1.2,0 1.2,-1.28 v 0 -8.84 q 0,-1.28 -1.2,-1.28 v 0 h -0.92 q -1.08,0 -1.08,1 v 0 9.4 q 0,1 1.08,1 z m 35.72,-15.6 v 0 h 1 q 4.68,0 4.68,4.44 v 0 V 0 h -5.6 v -14.6 q 0,-1 -1.08,-1 v 0 h -0.96 q -1.16,0 -1.16,1.28 v 0 V 0 h -5.56 v -19.8 h 5.48 v 2.24 q 0.56,-2.24 3.2,-2.24 z m 33.64,0 v 4.2 h -2.6 v 10.36 q 0,0.96 1.08,0.96 v 0 h 1.52 V 0 h -3.12 q -5.04,0 -5.04,-4.44 v 0 -11.16 h -2.08 v -4.2 h 2.08 v -3.68 h 5.56 v 3.68 z m 28.44,9.8 h -10.8 v -3.92 h 10.8 z m 29.04,-5.76 v 0 -4.76 q 0,-1 -1.08,-1 v 0 h -3.28 v 6.76 h 3.28 q 1.08,0 1.08,-1 z m 0,10.84 v 0 -4.96 q 0,-0.52 -0.24,-0.74 -0.24,-0.22 -0.84,-0.22 v 0 h -3.28 v 6.92 h 3.28 q 1.08,0 1.08,-1 z m -10,4.92 v -25.44 h 10.56 q 5.08,0 5.08,4.4 v 0 4.48 q 0,2.96 -1.8,3.72 v 0 q 1.8,0.68 1.8,3.44 v 0 4.96 q 0,4.44 -5.08,4.44 v 0 z m 43.44,-17.56 v -2.24 h 5.48 V 0 h -5.56 V -1.96 Q 595.64,0 593.08,0 v 0 h -0.96 q -4.68,0 -4.68,-4.44 v 0 -10.92 q 0,-4.44 4.68,-4.44 v 0 h 0.96 q 2.68,0 3.24,2.24 z m -2.2,13.36 v 0 h 0.92 q 1.2,0 1.2,-1.28 v 0 -8.84 q 0,-1.28 -1.2,-1.28 v 0 h -0.92 q -1.08,0 -1.08,1 v 0 9.4 q 0,1 1.08,1 z m 36.4,-15.72 v 0 h 0.68 v 4.84 h -1.96 q -2.52,0 -2.52,2.8 v 0 V 0 h -5.56 v -19.8 h 5.48 v 2.84 q 0.32,-1.32 1.32,-2.14 1,-0.82 2.56,-0.82 z"
             inkscape:connector-curvature="0"
             style="stroke:url(#linearGradient892)" />
        </defs>
        <clipPath
           id="id-6izo4zJp20-clip"
           style="stroke:url(#linearGradient892)">
          <use
             xlink:href="#id-6izo4zJp20"
             id="use16"
             x="0"
             y="0"
             width="100%"
             height="100%"
             style="stroke:url(#linearGradient892)" />
        </clipPath>
        <g
           clip-path="url(#id-6izo4zJp20-clip)"
           id="g21"
           style="fill:#e5c58f;fill-opacity:0.99259255;stroke:#00678f;stroke-opacity:0">
          <use
             xlink:href="#id-6izo4zJp20"
             class="a6izo4zJpstrokeColor-str"
             style="fill:#e5c58f;fill-opacity:0.99259255;stroke:#00678f;stroke-width:1.39999998;stroke-opacity:0"
             id="use19"
             x="0"
             y="0"
             width="100%"
             height="100%" />
        </g>
      </g>
    </svg>
  </g>
  <g
     id="g34"
     style="opacity:1">
    <svg
       width="297.40781"
       height="70.281097"
       x="377.3414"
       y="337.9473"
       version="1.1"
       preserveAspectRatio="none"
       viewBox="0.2 -26.76 113.24 26.76"
       id="svg32">
      <g
         class="aD6z1nYkhcolor"
         id="g30"
         style="fill:#e5c58f;fill-opacity:1">
        <path
           id="id-D6z1nYkh9"
           d="m 0.2,-24.88 h 10.72 v 2.36 h -4 V 0 H 4.2 v -22.52 h -4 z m 17.68,5.48 v 0 h 4.08 q 3.16,0 3.16,3.16 v 0 13.08 Q 25.12,0 21.96,0 v 0 h -4.08 q -3.16,0 -3.16,-3.16 v 0 -13.08 q 0,-3.16 3.16,-3.16 z m 4.52,15.8 v 0 -12.2 q 0,-0.76 -0.24,-1 -0.24,-0.24 -1,-0.24 v 0 h -2.48 q -0.76,0 -1,0.24 -0.24,0.24 -0.24,1 v 0 12.2 q 0,0.8 0.24,1.02 0.24,0.22 1,0.22 v 0 h 2.48 q 0.76,0 1,-0.22 0.24,-0.22 0.24,-1.02 z m 16.16,-15.8 h 2.96 L 37,-10.24 41.52,0 h -2.96 l -4.4,-10.24 z M 33.28,0 h -2.76 v -26.76 h 2.76 z m 15.2,-19.4 v 0 h 4.08 q 3.16,0 3.16,3.16 v 0 13.08 Q 55.72,0 52.56,0 v 0 h -4.08 q -3.16,0 -3.16,-3.16 v 0 -13.08 q 0,-3.16 3.16,-3.16 z M 53,-3.6 v 0 -12.2 q 0,-0.76 -0.24,-1 -0.24,-0.24 -1,-0.24 v 0 h -2.48 q -0.76,0 -1,0.24 -0.24,0.24 -0.24,1 v 0 12.2 q 0,0.8 0.24,1.02 0.24,0.22 1,0.22 v 0 h 2.48 q 0.76,0 1,-0.22 Q 53,-2.8 53,-3.6 Z M 63.88,-26.76 V 0 H 61.12 V -26.76 Z M 76.44,-3.8 V -19.4 H 79.2 V 0 H 76.44 V -1.32 Q 76,0 74.24,0 v 0 h -1.6 q -3.16,0 -3.16,-3.16 v 0 -16.24 h 2.76 v 15.8 q 0,0.8 0.24,1.02 0.24,0.22 1,0.22 v 0 h 1.6 q 0.72,0 1.04,-0.32 0.32,-0.32 0.32,-1.12 z m 13.32,-15.6 v 0 h 1.6 q 3.16,0 3.16,3.16 v 0 V 0 h -2.76 v -15.8 q 0,-0.76 -0.22,-1 -0.22,-0.24 -1.02,-0.24 v 0 h -1.6 q -0.72,0 -1.04,0.32 -0.32,0.32 -0.32,1.12 v 0 V 0 H 84.8 v -19.4 h 2.76 v 1.32 q 0.44,-1.32 2.2,-1.32 z m 17.12,1.32 v -1.32 h 2.76 V 0 h -2.76 V -1.32 Q 106.44,0 104.68,0 v 0 h -1.6 q -3.16,0 -3.16,-3.16 v 0 -13.08 q 0,-3.16 3.16,-3.16 v 0 h 1.6 q 1.76,0 2.2,1.32 z m -2.96,15.72 v 0 h 1.6 q 0.72,0 1.04,-0.32 0.32,-0.32 0.32,-1.12 v 0 -11.8 q 0,-0.8 -0.32,-1.12 -0.32,-0.32 -1.04,-0.32 v 0 h -1.6 q -0.8,0 -1.02,0.24 -0.22,0.24 -0.22,1 v 0 12.2 q 0,0.8 0.22,1.02 0.22,0.22 1.02,0.22 z"
           inkscape:connector-curvature="0" />
      </g>
    </svg>
  </g>
  <g
     id="g70"
     style="opacity:1">
    <svg
       width="67.567802"
       height="79.897697"
       x="303.25079"
       y="328.33069"
       version="1.1"
       preserveAspectRatio="none"
       viewBox="18.76 13.038355 62.479996 73.881645"
       id="svg68">
      <g
         class="icon1"
         id="g66"
         style="fill:#e55c3e;fill-opacity:1">
        <defs
           id="defs36" />
        <title
           id="title38">100icons2017</title>
        <path
           class="a"
           d="m 50,68.48 c -15.36,0 -31.24,-3.86 -31.24,-10.32 a 0.85,0.85 0 0 1 1.7,0 c 0,5.08 15.57,8.62 29.54,8.62 13.97,0 29.54,-3.54 29.54,-8.62 a 0.85,0.85 0 0 1 1.7,0 c 0,6.46 -15.88,10.32 -31.24,10.32 z"
           id="path40"
           inkscape:connector-curvature="0" />
        <path
           class="a"
           d="m 50,86.92 c -29,0 -31.24,-22 -31.24,-28.75 0,-6.11 13.68,-9.57 26.4,-10.2 a 0.85094066,0.85094066 0 1 1 0.08,1.7 c -15.51,0.77 -24.78,4.92 -24.78,8.5 0,8.13 2.88,27.05 29.54,27.05 26.66,0 29.54,-18.92 29.54,-27.06 0,-3.15 -7.26,-7 -21.15,-8.25 a 0.85,0.85 0 0 1 0.15,-1.69 c 13.79,1.24 22.69,5.15 22.69,9.94 C 81.24,64.91 79,86.92 50,86.92 Z"
           id="path42"
           inkscape:connector-curvature="0" />
        <path
           class="a"
           d="m 40.64,65.55 c -3,0 -5.41,-1.59 -5.41,-3.63 0,-2.04 2.38,-3.63 5.41,-3.63 3.03,0 5.36,1.6 5.36,3.63 0,2.03 -2.33,3.63 -5.36,3.63 z m 0,-5.56 c -2.19,0 -3.71,1 -3.71,1.93 0,0.93 1.52,1.93 3.71,1.93 2.19,0 3.71,-1 3.71,-1.93 0,-0.93 -1.52,-1.92 -3.71,-1.92 z"
           id="path44"
           inkscape:connector-curvature="0" />
        <path
           class="a"
           d="m 46.71,68.14 a 0.85,0.85 0 0 1 -0.23,-1.67 c 2.82,-0.81 4.32,-3.18 4.32,-4.58 0,-2.16 -5.26,-4.56 -12.81,-4.56 -7.55,0 -13.41,3.17 -13.42,5.23 a 0.85,0.85 0 0 1 -0.85,0.85 v 0 a 0.85,0.85 0 0 1 -0.85,-0.85 c 0,-3.62 7.23,-6.92 15.12,-6.92 8.27,0 14.51,2.69 14.51,6.26 0,2.22 -2.12,5.23 -5.55,6.22 a 0.86,0.86 0 0 1 -0.24,0.02 z"
           id="path46"
           inkscape:connector-curvature="0" />
        <path
           class="a"
           d="M 74.49,64.65 A 0.85,0.85 0 0 1 74.13,63 l 0.52,-0.25 H 74.5 c -1.15,-0.33 -2.73,-0.79 -3.53,-2 a 3.78,3.78 0 0 1 -0.43,-2.21 c 0,-1.84 0,-3.74 -5.66,-3.74 h -0.07 a 29.29,29.29 0 0 1 -8,-0.76 c -1.4,-0.45 -1.7,-1.08 -1.7,-1.53 a 0.85,0.85 0 0 1 1.63,-0.35 c 0.25,0.18 1.7,0.93 8.06,0.93 h 0.06 c 6.78,0 7.35,2.8 7.36,5.43 a 3.18,3.18 0 0 0 0.13,1.25 5.09,5.09 0 0 0 2.65,1.33 c 1,0.3 1.95,0.56 2,1.44 0.05,0.88 -0.7,1.36 -2.14,2 a 0.85,0.85 0 0 1 -0.37,0.11 z M 56.82,52.55 Z"
           id="path48"
           inkscape:connector-curvature="0" />
        <path
           class="a"
           d="m 68.44,66.24 c -2,0 -3.13,-0.63 -3.6,-1.35 a 1.25,1.25 0 0 1 -0.06,-1.42 c 1.12,-1.68 3.7,-1.68 4,-1.68 a 0.85,0.85 0 0 1 0,1.7 v 0 a 4.05,4.05 0 0 0 -2.29,0.64 c 0.45,0.27 1.61,0.64 3.82,0.22 A 0.85,0.85 0 1 1 70.6,66 11.79,11.79 0 0 1 68.44,66.24 Z"
           id="path50"
           inkscape:connector-curvature="0" />
        <path
           class="a"
           d="m 44.77,27.15 a 0.85,0.85 0 0 1 -0.31,-1.64 l 32,-12.36 A 0.85,0.85 0 1 1 77,14.73 L 45,27.09 a 0.86,0.86 0 0 1 -0.23,0.06 z"
           id="path52"
           inkscape:connector-curvature="0" />
        <path
           class="a"
           d="m 44.77,27.15 a 0.85,0.85 0 0 1 -0.31,-1.64 l 32,-12.36 A 0.85,0.85 0 1 1 77,14.73 L 45,27.09 a 0.86,0.86 0 0 1 -0.23,0.06 z"
           id="path54"
           inkscape:connector-curvature="0" />
        <path
           class="a"
           d="m 43.77,23.65 a 0.85,0.85 0 0 1 -0.1,-1.69 l 34,-4 a 0.85089659,0.85089659 0 0 1 0.2,1.69 l -34,4 z"
           id="path56"
           inkscape:connector-curvature="0" />
        <path
           class="a"
           d="m 62,67 c -2.46,0 -4,-0.35 -4.65,-1.28 A 2.2,2.2 0 0 1 57.2,63.47 c 0.8,-1.7 2.8,-2.12 4.8,-2.53 2,-0.41 3.3,-0.74 3.49,-1.66 0,-0.21 0,-0.28 0,-0.32 -0.62,-0.77 -3.94,-0.83 -6.61,-0.87 -1.76,0 -3.59,-0.06 -5.23,-0.24 -0.82,-0.09 -3.34,-0.37 -3.76,-2 C 49.49,54.36 51,53 51.79,52.34 V 22.27 a 0.85,0.85 0 1 1 1.7,0 v 30.49 a 0.85,0.85 0 0 1 -0.36,0.7 c -0.9,0.63 -1.71,1.59 -1.62,1.93 0,0.15 0.52,0.57 2.3,0.77 1.56,0.17 3.34,0.2 5.06,0.23 3.79,0.06 6.79,0.11 7.91,1.51 a 2,2 0 0 1 0.38,1.73 c -0.44,2.08 -2.76,2.55 -4.82,3 -1.55,0.32 -3.16,0.65 -3.51,1.53 -0.07,0.17 -0.17,0.47 -0.06,0.61 0.72,1 6,0.51 8.26,0.31 a 0.85,0.85 0 1 1 0.15,1.69 C 65.14,66.92 63.44,67 62,67 Z"
           id="path58"
           inkscape:connector-curvature="0" />
        <path
           class="a"
           d="M 56,51.52 A 0.85,0.85 0 0 1 55.15,50.67 V 22.38 a 0.85,0.85 0 1 1 1.7,0 V 50.67 A 0.85,0.85 0 0 1 56,51.52 Z"
           id="path60"
           inkscape:connector-curvature="0" />
        <path
           class="a"
           d="m 45.73,55 a 0.85,0.85 0 0 1 -0.65,-1.39 10,10 0 0 1 3.08,-2.52 V 24.88 a 0.85,0.85 0 1 1 1.7,0 v 26.73 a 0.85,0.85 0 0 1 -0.56,0.8 7.76,7.76 0 0 0 -2.9,2.26 0.85,0.85 0 0 1 -0.67,0.33 z"
           id="path62"
           inkscape:connector-curvature="0" />
        <path
           class="a"
           d="M 56,52.85 A 0.85,0.85 0 0 1 55.15,52 v -0.77 a 0.85,0.85 0 1 1 1.7,0 V 52 A 0.85,0.85 0 0 1 56,52.85 Z"
           id="path64"
           inkscape:connector-curvature="0" />
      </g>
    </svg>
  </g>
</svg>
