<svg viewBox="303.2508 328.3307 371.4984 103.9101" width="5000" height="1398.5268846379956" xmlns="http://www.w3.org/2000/svg" xmlns:xlink="http://www.w3.org/1999/xlink" preserveAspectRatio="none"><defs></defs><style>.a6izo4zJpcolor {fill:#FFFFFF;fill-opacity:1;}.a6izo4zJpstrokeColor-str {stroke:#D9D9D9;stroke-opacity:1;}.aD6z1nYkhcolor {fill:#FFFFFF;fill-opacity:1;}.aD6z1nYkhstrokeColor-str {stroke:#D9D9D9;stroke-opacity:1;}.aF485gXBGMcolors-0 {fill:#FFFFFF;fill-opacity:1;}.aF485gXBGMcolors-1 {fill:#D9D9D9;fill-opacity:1;}.aF485gXBGMcolors-2 {fill:#B4B4B4;fill-opacity:1;}.aF485gXBGMcolors-3 {fill:#A6A6A6;fill-opacity:1;}.aF485gXBGMcolors-4 {fill:#949494;fill-opacity:1;}.aF485gXBGMcolors-5 {fill:#848383;fill-opacity:1;}.aF485gXBGMcolors-6 {fill:#717171;fill-opacity:1;}.aF485gXBGMcolors-7 {fill:#636363;fill-opacity:1;}.ashadowchQvRzEHHa2A-floo {flood-color:#E5C58F;flood-opacity:0.5;}.ashadowLDCybzBGAhO2-floo {flood-color:#E55C3E;flood-opacity:0.5;}.ashadowO8-ptFzymQ-S-floo {flood-color:#141E20;flood-opacity:0.5;}</style><defs>
      <filter
        x="-1000"
        y="-1000"
        width="5000"
        height="5000"
        id="cGGZ5hhZR"
        filterUnits="userSpaceOnUse"
        primitiveUnits="userSpaceOnUse"
        color-interpolation-filters="sRGB">
        <feMerge><feMergeNode in="SourceGraphic" /></feMerge>
      </filter></defs><g opacity="1" transform="rotate(0 311.2508 417.9146)">
<svg width="354.4284" height="14.3262" x="311.2508" y="417.9146" version="1.1" preserveAspectRatio="none" viewBox="1.8 -25.44 629.4 25.44">
  <g transform="matrix(1 0 0 1 0 0)" class="a6izo4zJpcolor"><defs><path id="id-6izo4zJp20" d="M8.48-9.52L7.48-9.52L7.48 0L1.80 0L1.80-25.44L12.28-25.44Q17.32-25.44 17.32-21.04L17.32-21.04L17.32-13.92Q17.32-10.40 14.12-9.68L14.12-9.68L18.60 0L12.48 0L8.48-9.52ZM10.56-21.24L7.48-21.24L7.48-13.56L10.56-13.56Q11.12-13.56 11.36-13.78Q11.60-14 11.60-14.52L11.60-14.52L11.60-20.24Q11.60-21.24 10.56-21.24L10.56-21.24Z M44.96-17.56L44.96-19.80L50.44-19.80L50.44 0L44.88 0L44.88-1.96Q44.28 0 41.72 0L41.72 0L40.76 0Q36.08 0 36.08-4.44L36.08-4.44L36.08-15.36Q36.08-19.80 40.76-19.80L40.76-19.80L41.72-19.80Q44.40-19.80 44.96-17.56L44.96-17.56ZM42.76-4.20L42.76-4.20L43.68-4.20Q44.88-4.20 44.88-5.48L44.88-5.48L44.88-14.32Q44.88-15.60 43.68-15.60L43.68-15.60L42.76-15.60Q41.68-15.60 41.68-14.60L41.68-14.60L41.68-5.20Q41.68-4.20 42.76-4.20Z M87.28-19.80L87.28-19.80L88.24-19.80Q92.92-19.80 92.92-15.36L92.92-15.36L92.92 0L87.36 0L87.36-14.60Q87.36-15.60 86.28-15.60L86.28-15.60L85.32-15.60Q84.16-15.60 84.16-14.32L84.16-14.32L84.16 0L78.56 0L78.56-14.60Q78.56-15.60 77.48-15.60L77.48-15.60L76.52-15.60Q75.36-15.60 75.36-14.32L75.36-14.32L75.36 0L69.80 0L69.80-19.80L75.28-19.80L75.28-17.56Q75.84-19.80 78.48-19.80L78.48-19.80L79.48-19.80Q82.76-19.80 83.76-17.56L83.76-17.56Q84.04-18.60 84.98-19.20Q85.92-19.80 87.28-19.80Z M116.84-19.80L116.84-19.80L121.36-19.80Q126.44-19.80 126.44-15.36L126.44-15.36L126.44-8.36L117.12-8.36L117.12-4.96Q117.12-4.44 117.36-4.22Q117.60-4 118.20-4L118.20-4L120-4Q120.56-4 120.80-4.24Q121.04-4.48 121.04-5.04L121.04-5.04L121.04-6.36L126.40-6.36L126.40-4.44Q126.40 0 121.32 0L121.32 0L116.84 0Q111.80 0 111.80-4.44L111.80-4.44L111.80-15.36Q111.80-19.80 116.84-19.80ZM117.12-14.84L117.12-11.64L121.08-11.64L121.08-14.84Q121.08-15.36 120.84-15.58Q120.60-15.80 120.04-15.80L120.04-15.80L118.20-15.80Q117.60-15.80 117.36-15.58Q117.12-15.36 117.12-14.84L117.12-14.84Z M153.92-19.80L153.92-19.80L154.92-19.80Q159.60-19.80 159.60-15.36L159.60-15.36L159.60 0L154 0L154-14.60Q154-15.60 152.92-15.60L152.92-15.60L151.96-15.60Q150.80-15.60 150.80-14.32L150.80-14.32L150.80 0L145.24 0L145.24-19.80L150.72-19.80L150.72-17.56Q151.28-19.80 153.92-19.80Z M189.16-10L178.36-10L178.36-13.92L189.16-13.92L189.16-10Z M214.88-9.52L213.88-9.52L213.88 0L208.20 0L208.20-25.44L218.68-25.44Q223.72-25.44 223.72-21.04L223.72-21.04L223.72-13.92Q223.72-10.40 220.52-9.68L220.52-9.68L225 0L218.88 0L214.88-9.52ZM216.96-21.24L213.88-21.24L213.88-13.56L216.96-13.56Q217.52-13.56 217.76-13.78Q218-14 218-14.52L218-14.52L218-20.24Q218-21.24 216.96-21.24L216.96-21.24Z M247.60-19.80L247.60-19.80L252.12-19.80Q257.20-19.80 257.20-15.36L257.20-15.36L257.20-8.36L247.88-8.36L247.88-4.96Q247.88-4.44 248.12-4.22Q248.36-4 248.96-4L248.96-4L250.76-4Q251.32-4 251.56-4.24Q251.80-4.48 251.80-5.04L251.80-5.04L251.80-6.36L257.16-6.36L257.16-4.44Q257.16 0 252.08 0L252.08 0L247.60 0Q242.56 0 242.56-4.44L242.56-4.44L242.56-15.36Q242.56-19.80 247.60-19.80ZM247.88-14.84L247.88-11.64L251.84-11.64L251.84-14.84Q251.84-15.36 251.60-15.58Q251.36-15.80 250.80-15.80L250.80-15.80L248.96-15.80Q248.36-15.80 248.12-15.58Q247.88-15.36 247.88-14.84L247.88-14.84Z M283.80-4.76L283.80-4.76L283.80-7Q283.80-7.52 283.56-7.74Q283.32-7.96 282.72-7.96L282.72-7.96L280.44-7.96Q275.44-7.96 275.44-12.36L275.44-12.36L275.44-15.36Q275.44-19.80 280.52-19.80L280.52-19.80L283.92-19.80Q289-19.80 289-15.36L289-15.36L289-13.60L283.64-13.60L283.64-15.04Q283.64-15.56 283.40-15.78Q283.16-16 282.56-16L282.56-16L281.96-16Q281.36-16 281.12-15.78Q280.88-15.56 280.88-15.04L280.88-15.04L280.88-12.64Q280.88-12.12 281.12-11.90Q281.36-11.68 281.96-11.68L281.96-11.68L284.24-11.68Q289.24-11.68 289.24-7.32L289.24-7.32L289.24-4.44Q289.24 0 284.16 0L284.16 0L280.60 0Q275.56 0 275.56-4.44L275.56-4.44L275.56-6.16L281-6.16L281-4.76Q281-3.76 282.04-3.76L282.04-3.76L282.72-3.76Q283.80-3.76 283.80-4.76Z M316.80-19.80L316.80-15.60L314.20-15.60L314.20-5.24Q314.20-4.28 315.28-4.28L315.28-4.28L316.80-4.28L316.80 0L313.68 0Q308.64 0 308.64-4.44L308.64-4.44L308.64-15.60L306.56-15.60L306.56-19.80L308.64-19.80L308.64-23.48L314.20-23.48L314.20-19.80L316.80-19.80Z M343.40-17.56L343.40-19.80L348.88-19.80L348.88 0L343.32 0L343.32-1.96Q342.72 0 340.16 0L340.16 0L339.20 0Q334.52 0 334.52-4.44L334.52-4.44L334.52-15.36Q334.52-19.80 339.20-19.80L339.20-19.80L340.16-19.80Q342.84-19.80 343.40-17.56L343.40-17.56ZM341.20-4.20L341.20-4.20L342.12-4.20Q343.32-4.20 343.32-5.48L343.32-5.48L343.32-14.32Q343.32-15.60 342.12-15.60L342.12-15.60L341.20-15.60Q340.12-15.60 340.12-14.60L340.12-14.60L340.12-5.20Q340.12-4.20 341.20-4.20Z M376.88-5.48L376.88-19.80L382.44-19.80L382.44 0L376.96 0L376.96-2.24Q376.40 0 373.72 0L373.72 0L372.76 0Q368.08 0 368.08-4.44L368.08-4.44L368.08-19.80L373.68-19.80L373.68-5.20Q373.68-4.20 374.76-4.20L374.76-4.20L375.68-4.20Q376.88-4.20 376.88-5.48L376.88-5.48Z M411.16-19.92L411.16-19.92L411.84-19.92L411.84-15.08L409.88-15.08Q407.36-15.08 407.36-12.28L407.36-12.28L407.36 0L401.80 0L401.80-19.80L407.28-19.80L407.28-16.96Q407.60-18.28 408.60-19.10Q409.60-19.92 411.16-19.92Z M438.24-17.56L438.24-19.80L443.72-19.80L443.72 0L438.16 0L438.16-1.96Q437.56 0 435 0L435 0L434.04 0Q429.36 0 429.36-4.44L429.36-4.44L429.36-15.36Q429.36-19.80 434.04-19.80L434.04-19.80L435-19.80Q437.68-19.80 438.24-17.56L438.24-17.56ZM436.04-4.20L436.04-4.20L436.96-4.20Q438.16-4.20 438.16-5.48L438.16-5.48L438.16-14.32Q438.16-15.60 436.96-15.60L436.96-15.60L436.04-15.60Q434.96-15.60 434.96-14.60L434.96-14.60L434.96-5.20Q434.96-4.20 436.04-4.20Z M471.76-19.80L471.76-19.80L472.76-19.80Q477.44-19.80 477.44-15.36L477.44-15.36L477.44 0L471.84 0L471.84-14.60Q471.84-15.60 470.76-15.60L470.76-15.60L469.80-15.60Q468.64-15.60 468.64-14.32L468.64-14.32L468.64 0L463.08 0L463.08-19.80L468.56-19.80L468.56-17.56Q469.12-19.80 471.76-19.80Z M505.40-19.80L505.40-15.60L502.80-15.60L502.80-5.24Q502.80-4.28 503.88-4.28L503.88-4.28L505.40-4.28L505.40 0L502.28 0Q497.24 0 497.24-4.44L497.24-4.44L497.24-15.60L495.16-15.60L495.16-19.80L497.24-19.80L497.24-23.48L502.80-23.48L502.80-19.80L505.40-19.80Z M533.84-10L523.04-10L523.04-13.92L533.84-13.92L533.84-10Z M562.88-15.76L562.88-15.76L562.88-20.52Q562.88-21.52 561.80-21.52L561.80-21.52L558.52-21.52L558.52-14.76L561.80-14.76Q562.88-14.76 562.88-15.76ZM562.88-4.92L562.88-4.92L562.88-9.88Q562.88-10.40 562.64-10.62Q562.40-10.84 561.80-10.84L561.80-10.84L558.52-10.84L558.52-3.92L561.80-3.92Q562.88-3.92 562.88-4.92ZM552.88 0L552.88-25.44L563.44-25.44Q568.52-25.44 568.52-21.04L568.52-21.04L568.52-16.56Q568.52-13.60 566.72-12.84L566.72-12.84Q568.52-12.16 568.52-9.40L568.52-9.40L568.52-4.44Q568.52 0 563.44 0L563.44 0L552.88 0Z M596.32-17.56L596.32-19.80L601.80-19.80L601.80 0L596.24 0L596.24-1.96Q595.64 0 593.08 0L593.08 0L592.12 0Q587.44 0 587.44-4.44L587.44-4.44L587.44-15.36Q587.44-19.80 592.12-19.80L592.12-19.80L593.08-19.80Q595.76-19.80 596.32-17.56L596.32-17.56ZM594.12-4.20L594.12-4.20L595.04-4.20Q596.24-4.20 596.24-5.48L596.24-5.48L596.24-14.32Q596.24-15.60 595.04-15.60L595.04-15.60L594.12-15.60Q593.04-15.60 593.04-14.60L593.04-14.60L593.04-5.20Q593.04-4.20 594.12-4.20Z M630.52-19.92L630.52-19.92L631.20-19.92L631.20-15.08L629.24-15.08Q626.72-15.08 626.72-12.28L626.72-12.28L626.72 0L621.16 0L621.16-19.80L626.64-19.80L626.64-16.96Q626.96-18.28 627.96-19.10Q628.96-19.92 630.52-19.92Z"/></defs>
  <clipPath id="id-6izo4zJp20-clip"><use xlink:href="#id-6izo4zJp20" /></clipPath>
  <g clip-path="url(#id-6izo4zJp20-clip)"><use xlink:href="#id-6izo4zJp20" class="a6izo4zJpstrokeColor-str" style="stroke-width:1.4;"/></g>
  </g>
</svg>
</g><g opacity="1" transform="rotate(0 377.3414 337.9473)">
<svg width="297.4078" height="70.2811" x="377.3414" y="337.9473" version="1.1" preserveAspectRatio="none" viewBox="0.2 -26.76 113.24 26.76">
  <g transform="matrix(1 0 0 1 0 0)" class="aD6z1nYkhcolor"><path id="id-D6z1nYkh9" d="M0.20-24.88L10.92-24.88L10.92-22.52L6.92-22.52L6.92 0L4.20 0L4.20-22.52L0.20-22.52L0.20-24.88Z M17.88-19.40L17.88-19.40L21.96-19.40Q25.12-19.40 25.12-16.24L25.12-16.24L25.12-3.16Q25.12 0 21.96 0L21.96 0L17.88 0Q14.72 0 14.72-3.16L14.72-3.16L14.72-16.24Q14.72-19.40 17.88-19.40ZM22.40-3.60L22.40-3.60L22.40-15.80Q22.40-16.56 22.16-16.80Q21.92-17.04 21.16-17.04L21.16-17.04L18.68-17.04Q17.92-17.04 17.68-16.80Q17.44-16.56 17.44-15.80L17.44-15.80L17.44-3.60Q17.44-2.80 17.68-2.58Q17.92-2.36 18.68-2.36L18.68-2.36L21.16-2.36Q21.92-2.36 22.16-2.58Q22.40-2.80 22.40-3.60Z M38.56-19.40L41.52-19.40L37-10.24L41.52 0L38.56 0L34.16-10.24L38.56-19.40ZM33.28 0L30.52 0L30.52-26.76L33.28-26.76L33.28 0Z M48.48-19.40L48.48-19.40L52.56-19.40Q55.72-19.40 55.72-16.24L55.72-16.24L55.72-3.16Q55.72 0 52.56 0L52.56 0L48.48 0Q45.32 0 45.32-3.16L45.32-3.16L45.32-16.24Q45.32-19.40 48.48-19.40ZM53-3.60L53-3.60L53-15.80Q53-16.56 52.76-16.80Q52.52-17.04 51.76-17.04L51.76-17.04L49.28-17.04Q48.52-17.04 48.28-16.80Q48.04-16.56 48.04-15.80L48.04-15.80L48.04-3.60Q48.04-2.80 48.28-2.58Q48.52-2.36 49.28-2.36L49.28-2.36L51.76-2.36Q52.52-2.36 52.76-2.58Q53-2.80 53-3.60Z M63.88-26.76L63.88 0L61.12 0L61.12-26.76L63.88-26.76Z M76.44-3.80L76.44-19.40L79.20-19.40L79.20 0L76.44 0L76.44-1.32Q76 0 74.24 0L74.24 0L72.64 0Q69.48 0 69.48-3.16L69.48-3.16L69.48-19.40L72.24-19.40L72.24-3.60Q72.24-2.80 72.48-2.58Q72.72-2.36 73.48-2.36L73.48-2.36L75.08-2.36Q75.80-2.36 76.12-2.68Q76.44-3 76.44-3.80L76.44-3.80Z M89.76-19.40L89.76-19.40L91.36-19.40Q94.52-19.40 94.52-16.24L94.52-16.24L94.52 0L91.76 0L91.76-15.80Q91.76-16.56 91.54-16.80Q91.32-17.04 90.52-17.04L90.52-17.04L88.92-17.04Q88.20-17.04 87.88-16.72Q87.56-16.40 87.56-15.60L87.56-15.60L87.56 0L84.80 0L84.80-19.40L87.56-19.40L87.56-18.08Q88-19.40 89.76-19.40Z M106.88-18.08L106.88-19.40L109.64-19.40L109.64 0L106.88 0L106.88-1.32Q106.44 0 104.68 0L104.68 0L103.08 0Q99.92 0 99.92-3.16L99.92-3.16L99.92-16.24Q99.92-19.40 103.08-19.40L103.08-19.40L104.68-19.40Q106.44-19.40 106.88-18.08L106.88-18.08ZM103.92-2.36L103.92-2.36L105.52-2.36Q106.24-2.36 106.56-2.68Q106.88-3 106.88-3.80L106.88-3.80L106.88-15.60Q106.88-16.40 106.56-16.72Q106.24-17.04 105.52-17.04L105.52-17.04L103.92-17.04Q103.12-17.04 102.90-16.80Q102.68-16.56 102.68-15.80L102.68-15.80L102.68-3.60Q102.68-2.80 102.90-2.58Q103.12-2.36 103.92-2.36Z"/></g>
</svg>
</g><g opacity="1" transform="rotate(0 303.2508 328.3307)">
<svg width="67.5678" height="79.8977" x="303.2508" y="328.3307" version="1.1" preserveAspectRatio="none" viewBox="18.760000228881836 13.038354873657228 62.47999572753906 73.88164520263672">
  <g transform="matrix(1 0 0 1 0 0)" class="aF485gXBGMcolors-0"><defs></defs><title>100icons2017</title><path class="a" d="M50,68.48c-15.36,0-31.24-3.86-31.24-10.32a.85.85,0,0,1,1.7,0c0,5.08,15.57,8.62,29.54,8.62s29.54-3.54,29.54-8.62a.85.85,0,0,1,1.7,0C81.24,64.62,65.36,68.48,50,68.48Z"></path><path class="a" d="M50,86.92c-29,0-31.24-22-31.24-28.75,0-6.11,13.68-9.57,26.4-10.2a.85.85,0,1,1,.08,1.7c-15.51.77-24.78,4.92-24.78,8.5,0,8.13,2.88,27.05,29.54,27.05S79.54,66.3,79.54,58.16c0-3.15-7.26-7-21.15-8.25a.85.85,0,0,1,.15-1.69c13.79,1.24,22.69,5.15,22.69,9.94C81.24,64.91,79,86.92,50,86.92Z"></path><path class="a" d="M40.64,65.55c-3,0-5.41-1.59-5.41-3.63s2.38-3.63,5.41-3.63S46,59.89,46,61.92,43.67,65.55,40.64,65.55Zm0-5.56c-2.19,0-3.71,1-3.71,1.93s1.52,1.93,3.71,1.93,3.71-1,3.71-1.93S42.83,60,40.64,60Z"></path><path class="a" d="M46.71,68.14a.85.85,0,0,1-.23-1.67c2.82-.81,4.32-3.18,4.32-4.58,0-2.16-5.26-4.56-12.81-4.56S24.58,60.5,24.57,62.56a.85.85,0,0,1-.85.85h0a.85.85,0,0,1-.85-.85c0-3.62,7.23-6.92,15.12-6.92,8.27,0,14.51,2.69,14.51,6.26,0,2.22-2.12,5.23-5.55,6.22A.86.86,0,0,1,46.71,68.14Z"></path><path class="a" d="M74.49,64.65A.85.85,0,0,1,74.13,63l.52-.25-.15,0c-1.15-.33-2.73-.79-3.53-2a3.78,3.78,0,0,1-.43-2.21c0-1.84,0-3.74-5.66-3.74h-.07a29.29,29.29,0,0,1-8-.76c-1.4-.45-1.7-1.08-1.7-1.53a.85.85,0,0,1,1.63-.35c.25.18,1.7.93,8.06.93h.06c6.78,0,7.35,2.8,7.36,5.43a3.18,3.18,0,0,0,.13,1.25A5.09,5.09,0,0,0,75,61.1c1,.3,1.95.56,2,1.44s-.7,1.36-2.14,2A.85.85,0,0,1,74.49,64.65ZM56.82,52.55h0Z"></path><path class="a" d="M68.44,66.24c-2,0-3.13-.63-3.6-1.35a1.25,1.25,0,0,1-.06-1.42c1.12-1.68,3.7-1.68,4-1.68a.85.85,0,0,1,0,1.7h0a4.05,4.05,0,0,0-2.29.64c.45.27,1.61.64,3.82.22A.85.85,0,1,1,70.6,66,11.79,11.79,0,0,1,68.44,66.24Z"></path><path class="a" d="M44.77,27.15a.85.85,0,0,1-.31-1.64l32-12.36A.85.85,0,1,1,77,14.73l-32,12.36A.86.86,0,0,1,44.77,27.15Z"></path><path class="a" d="M44.77,27.15a.85.85,0,0,1-.31-1.64l32-12.36A.85.85,0,1,1,77,14.73l-32,12.36A.86.86,0,0,1,44.77,27.15Z"></path><path class="a" d="M43.77,23.65a.85.85,0,0,1-.1-1.69l34-4a.85.85,0,0,1,.2,1.69l-34,4Z"></path><path class="a" d="M62,67c-2.46,0-4-.35-4.65-1.28a2.2,2.2,0,0,1-.15-2.25C58,61.77,60,61.35,62,60.94s3.3-.74,3.49-1.66c0-.21,0-.28,0-.32-.62-.77-3.94-.83-6.61-.87-1.76,0-3.59-.06-5.23-.24-.82-.09-3.34-.37-3.76-2C49.49,54.36,51,53,51.79,52.34V22.27a.85.85,0,1,1,1.7,0V52.76a.85.85,0,0,1-.36.7c-.9.63-1.71,1.59-1.62,1.93,0,.15.52.57,2.3.77,1.56.17,3.34.2,5.06.23,3.79.06,6.79.11,7.91,1.51a2,2,0,0,1,.38,1.73c-.44,2.08-2.76,2.55-4.82,3-1.55.32-3.16.65-3.51,1.53-.07.17-.17.47-.06.61.72,1,6,.51,8.26.31a.85.85,0,1,1,.15,1.69C65.14,66.92,63.44,67,62,67Z"></path><path class="a" d="M56,51.52a.85.85,0,0,1-.85-.85V22.38a.85.85,0,1,1,1.7,0V50.67A.85.85,0,0,1,56,51.52Z"></path><path class="a" d="M45.73,55a.85.85,0,0,1-.65-1.39,10,10,0,0,1,3.08-2.52V24.88a.85.85,0,1,1,1.7,0V51.61a.85.85,0,0,1-.56.8,7.76,7.76,0,0,0-2.9,2.26A.85.85,0,0,1,45.73,55Z"></path><path class="a" d="M56,52.85a.85.85,0,0,1-.85-.85v-.77a.85.85,0,1,1,1.7,0V52A.85.85,0,0,1,56,52.85Z"></path></g>
</svg>
</g></svg>